<svg xmlns="http://www.w3.org/2000/svg" width="1200" height="1200" fill="none" viewBox="0 0 1200 1200"><style>.line{transition:all .5s ease;opacity:.08}.line:hover{opacity:.15}@media (prefers-color-scheme:dark){.line{stroke:#fff}}@media (prefers-color-scheme:light){.line{stroke:#000}}</style><g><path stroke-width="1" d="M0 200h1200" class="line"/><path stroke-width="1" d="M0 400h1200" class="line"/><path stroke-width="1" d="M0 600h1200" class="line"/><path stroke-width="1" d="M0 800h1200" class="line"/><path stroke-width="1" d="M0 1000h1200" class="line"/><path stroke-width="1" d="M200 0v1200" class="line"/><path stroke-width="1" d="M400 0v1200" class="line"/><path stroke-width="1" d="M600 0v1200" class="line"/><path stroke-width="1" d="M800 0v1200" class="line"/><path stroke-width="1" d="M1000 0v1200" class="line"/></g><g><path stroke-width="1" d="M0 0 L1200 1200" class="line"/><path stroke-width="1" d="M1200 0 L0 1200" class="line"/><path stroke-width="1" d="M0 400 L800 1200" class="line"/><path stroke-width="1" d="M400 0 L1200 800" class="line"/><path stroke-width="1" d="M0 800 L400 1200" class="line"/><path stroke-width="1" d="M800 0 L1200 400" class="line"/></g><g><circle cx="600" cy="600" r="300" stroke-dasharray="4 4" stroke-width="1" class="line"/><circle cx="600" cy="600" r="400" stroke-dasharray="4 4" stroke-width="1" class="line"/><circle cx="600" cy="600" r="500" stroke-dasharray="4 4" stroke-width="1" class="line"/></g><g><path stroke-width="1" d="M100 100 L200 100 L200 200 L100 200 Z" class="line"/><path stroke-width="1" d="M1000 100 L1100 100 L1100 200 L1000 200 Z" class="line"/><path stroke-width="1" d="M100 1000 L200 1000 L200 1100 L100 1100 Z" class="line"/><path stroke-width="1" d="M1000 1000 L1100 1000 L1100 1100 L1000 1100 Z" class="line"/></g><g><path stroke-width="1" d="M300 300 L350 300 L350 350 L300 350 Z" class="line"/><path stroke-width="1" d="M850 300 L900 300 L900 350 L850 350 Z" class="line"/><path stroke-width="1" d="M300 850 L350 850 L350 900 L300 900 Z" class="line"/><path stroke-width="1" d="M850 850 L900 850 L900 900 L850 900 Z" class="line"/></g></svg>