<svg xmlns="http://www.w3.org/2000/svg" width="800" height="800" viewBox="0 0 800 800"><style>@keyframes scale{0%{transform:scale(1)}50%{transform:scale(1.02)}}.radar{fill:none;stroke:#000;stroke-width:1.5;opacity:.08;animation:scale 10s ease-in-out infinite}.radar-fill{fill:#000;opacity:0}</style><g transform="translate(270, 400)"><g><polygon points="0 -200 173.2 -100 173.2 100 0 200 -173.2 100 -173.2 -100" class="radar"/><polygon points="0 -150 129.9 -75 129.9 75 0 150 -129.9 75 -129.9 -75" class="radar"/><polygon points="0 -100 86.6 -50 86.6 50 0 100 -86.6 50 -86.6 -50" class="radar"/><polygon points="0 -50 43.3 -25 43.3 25 0 50 -43.3 25 -43.3 -25" class="radar"/></g><polygon points="0 -180 155.9 -90 155.9 90 0 180 -155.9 90 -155.9 -90" class="radar-fill"/><g><line x1="0" x2="0" y1="0" y2="-200" class="radar"/><line x1="0" x2="173.2" y1="0" y2="-100" class="radar"/><line x1="0" x2="173.2" y1="0" y2="100" class="radar"/><line x1="0" x2="0" y1="0" y2="200" class="radar"/><line x1="0" x2="-173.2" y1="0" y2="100" class="radar"/><line x1="0" x2="-173.2" y1="0" y2="-100" class="radar"/></g></g></svg>